<svg id="Layer_1" data-name="Layer 1" xmlns="http://www.w3.org/2000/svg" xmlns:xlink="http://www.w3.org/1999/xlink" viewBox="0 0 563.28 214.89"><defs><style>.cls-1,.cls-2,.cls-7{fill:none;}.cls-2,.cls-3{stroke:#000;}.cls-2,.cls-3,.cls-5,.cls-7{stroke-miterlimit:10;}.cls-2{stroke-width:3px;}.cls-3,.cls-5{font-size:135px;font-family:SinhalaMN, Sinhala MN;}.cls-3,.cls-5,.cls-7{stroke-width:2px;}.cls-4{clip-path:url(#clip-path);}.cls-5{stroke:#fff;}.cls-6{letter-spacing:-0.04em;}.cls-7{stroke:#ceb500;}</style><clipPath id="clip-path" transform="translate(-14.62 20.44)"><rect class="cls-1" width="600" height="175"/></clipPath></defs><title>logo</title><polygon class="cls-2" points="89.97 56.55 31.14 56.55 1.73 107.5 31.14 158.44 89.97 158.44 119.38 107.5 89.97 56.55"/><text class="cls-3" transform="translate(25.65 140.12)">N</text><g class="cls-4"><polygon class="cls-2" points="184.8 111.5 125.97 111.5 96.56 162.44 125.97 213.39 184.8 213.39 214.21 162.44 184.8 111.5"/><g class="cls-4"><polygon class="cls-2" points="184.8 1.5 125.97 1.5 96.56 52.45 125.97 103.39 184.8 103.39 214.21 52.45 184.8 1.5"/><text class="cls-5" transform="translate(126.83 140.62)">IDO<tspan class="cls-6" x="183.05" y="0">P</tspan><tspan x="232.16" y="0">ANN</tspan></text></g></g><polygon class="cls-7" points="86.97 61.95 34.15 61.95 7.73 107.7 34.15 153.44 86.97 153.44 113.38 107.7 86.97 61.95"/></svg>