<svg xmlns="http://www.w3.org/2000/svg" viewBox="0 0 1000 1000"><g fill="#fff"><path d="M555.49 28.09C543.3 32.5 408.2 164.45 399.38 180.63c-3.57 6.51-4.2 13.87-5.04 69.34l-1.05 61.98-29.84.63-30.05.63v594.41l293.74-.42 293.53-.63 11.56-4.62c23.32-9.67 43.49-29.84 53.16-53.16l4.62-11.56V383.39l-4.62-11.56c-12.82-31.31-41.39-53.58-74.8-58.41l-10.93-1.47-1.06-123.97-1.05-123.97-5.67-9.88c-3.36-5.25-9.46-12.61-13.66-16.18-15.97-13.03-12.19-12.82-170.61-12.82-114.93.23-145.82.86-152.12 2.96zm297.73 30.67c3.36 1.68 8.19 5.88 10.51 9.03 4.41 5.88 4.41 6.51 4.41 202.76v196.88H424.8V209l54.63-1.05c54.21-1.05 54.63-1.05 65.35-6.72 12.19-6.51 22.69-17.65 28.37-29.84 3.36-7.56 3.99-14.71 3.99-61.35 0-29 .63-53.37 1.47-54.21.84-.63 61.56-1.05 134.89-.84 113.87.62 134.46 1.04 139.72 3.77zM552.97 580.89v35.72H441.61l-.63-33.62c-.21-18.28 0-34.67.42-36.14.84-2.31 12.4-2.73 56.31-2.31l55.26.63v35.72zm147.08 0v35.72H590.79l-.63-33.62c-.21-18.28 0-34.67.42-36.14.84-2.31 12.19-2.73 55.26-2.31l54.21.63v35.72zm149.17 0v35.72H737.86l-.63-33.62c-.21-18.28 0-34.67.42-36.14.84-2.31 12.4-2.73 56.31-2.31l55.26.63v35.72zM552.97 688.05v33.62H441.61l-.63-31.52c-.21-17.23 0-32.57.42-34.04.84-2.31 12.4-2.73 56.31-2.31l55.26.63v33.62zm147.08 0v33.62H590.79l-.63-31.52c-.21-17.23 0-32.57.42-34.04.84-2.31 12.19-2.73 55.26-2.31l54.21.63v33.62zm149.17 0v33.62H737.86l-.63-31.52c-.21-17.23 0-32.57.42-34.04.84-2.31 12.4-2.73 56.31-2.31l55.26.63v33.62zM552.97 795.21v35.72H441.61l-.63-33.62c-.21-18.28 0-34.67.42-36.14.84-2.31 12.4-2.73 56.31-2.31l55.26.63v35.72zm147.08 0v35.72H590.79l-.63-33.62c-.21-18.28 0-34.67.42-36.14.84-2.31 12.19-2.73 55.26-2.31l54.21.63v35.72zm149.17 0v35.72H737.86l-.63-33.62c-.21-18.28 0-34.67.42-36.14.84-2.31 12.4-2.73 56.31-2.31l55.26.63v35.72z"/><path d="M635.96 199.54v14.71h168.08v-29.42H635.96v14.71zm-147.08 94.55v14.71h315.16v-29.42H488.88v14.71zm0 94.55v14.71h315.16v-29.42H488.88v14.71zM148.92 252.28c-14.5 7.14-21.85 14.92-29 30.26l-5.04 10.51v634.53l5.04 10.51c7.14 15.34 14.5 23.11 29 30.26l12.82 6.51h91.18l12.82-6.51c14.5-7.14 21.85-14.92 29-30.26l5.04-10.51V292.62l-6.51-12.82c-7.14-14.5-14.92-21.85-30.26-29-10.08-4.83-12.82-5.04-55.89-5.04h-45.38l-12.82 6.52zM67.61 319.3c-21.85 8.61-42.65 29.42-52.11 52.53l-4.62 11.56-.63 221.67c-.63 247.93-1.26 236.17 14.29 260.12 11.77 18.49 31.73 33.41 52.11 39.29l4.62 1.26V610.52c0-162.42-.63-295.42-1.47-295.21-1.05 0-6.31 1.89-12.19 3.99z"/></g></svg>