<?xml version="1.0" encoding="utf-8"?>
<!-- Generator: Adobe Illustrator 21.0.0, SVG Export Plug-In . SVG Version: 6.00 Build 0)  -->
<svg version="1.1" id="Layer_1" xmlns="http://www.w3.org/2000/svg" xmlns:xlink="http://www.w3.org/1999/xlink" x="0px" y="0px"
	 viewBox="0 0 563.3 214.9" style="enable-background:new 0 0 563.3 214.9;" xml:space="preserve">
<style type="text/css">
	.st0{fill:none;stroke:#000000;stroke-width:3;stroke-miterlimit:10;}
	.st1{font-family:'SinhalaMN';}
	.st2{font-size:135px;}
	.st3{fill:none;stroke:#000000;stroke-width:2;stroke-miterlimit:10;}
	.st4{clip-path:url(#SVGID_2_);}
	.st5{fill:#FFFFFF;stroke:#000000;stroke-width:3;stroke-miterlimit:10;}
	.st6{clip-path:url(#SVGID_4_);}
	.st7{fill:#FFFFFF;}
	.st8{fill:#FFFFFF;stroke:#FFFFFF;stroke-width:2;stroke-miterlimit:10;}
	.st9{letter-spacing:-5;}
	.st10{fill:#FFFFFF;stroke:#CEB500;stroke-width:2;stroke-miterlimit:10;}
</style>
<title>logo</title>
<polygon class="st0" points="90,56.5 31.1,56.5 1.7,107.5 31.1,158.4 90,158.4 119.4,107.5 "/>
<text transform="matrix(1 0 0 1 25.65 140.12)" class="st1 st2">N</text>
<text transform="matrix(1 0 0 1 25.65 140.12)" class="st3 st1 st2">N</text>
<g>
	<defs>
		<rect id="SVGID_1_" x="-14.6" y="20.4" width="600" height="175"/>
	</defs>
	<use xlink:href="#SVGID_1_"  style="overflow:visible;fill:#FFFFFF;"/>
	<clipPath id="SVGID_2_">
		<use xlink:href="#SVGID_1_"  style="overflow:visible;"/>
	</clipPath>
	<g class="st4">
		<polygon class="st5" points="184.8,111.5 126,111.5 96.6,162.4 126,213.4 184.8,213.4 214.2,162.4 		"/>
		<g>
			<defs>
				<rect id="SVGID_3_" x="-14.6" y="20.4" width="600" height="175"/>
			</defs>
			<use xlink:href="#SVGID_3_"  style="overflow:visible;fill:#FFFFFF;"/>
			<clipPath id="SVGID_4_">
				<use xlink:href="#SVGID_3_"  style="overflow:visible;"/>
			</clipPath>
			<g class="st6">
				<polygon class="st5" points="184.8,1.5 126,1.5 96.6,52.5 126,103.4 184.8,103.4 214.2,52.5 				"/>
				<text transform="matrix(1 0 0 1 126.83 140.62)" class="st7 st1 st2">IDO</text>
				<text transform="matrix(1 0 0 1 126.83 140.62)" class="st8 st1 st2">IDO</text>
				<text transform="matrix(1 0 0 1 309.88 140.62)" class="st7 st1 st2 st9">P</text>
				<text transform="matrix(1 0 0 1 309.88 140.62)" class="st8 st1 st2 st9">P</text>
				<text transform="matrix(1 0 0 1 358.99 140.62)" class="st7 st1 st2">ANN</text>
				<text transform="matrix(1 0 0 1 358.99 140.62)" class="st8 st1 st2">ANN</text>
			</g>
		</g>
		<polygon class="st10" points="87,62 34.2,62 7.7,107.7 34.2,153.4 87,153.4 113.4,107.7 		"/>
	</g>
</g>
</svg>
