<svg id="Layer_1" data-name="Layer 1" xmlns="http://www.w3.org/2000/svg" viewBox="0 0 563.28 214.89"><defs><style>.cls-2{fill:none;stroke:#000;stroke-miterlimit:10;stroke-width:3px}.cls-4{clip-path:url(#clip-path)}</style><clipPath id="clip-path" transform="translate(-14.62 20.44)"><path fill="none" d="M0 0h600v175H0z"/></clipPath></defs><path class="cls-2" d="M89.97 56.55H31.14L1.73 107.5l29.41 50.94h58.83l29.41-50.94-29.41-50.95z"/><text transform="translate(25.65 140.12)" stroke-width="2" font-size="135" font-family="SinhalaMN,Sinhala MN" stroke-miterlimit="10" stroke="#000">N</text><g class="cls-4"><path class="cls-2" d="M184.8 111.5h-58.83l-29.41 50.94 29.41 50.95h58.83l29.41-50.95-29.41-50.94z"/><g class="cls-4"><path class="cls-2" d="M184.8 1.5h-58.83L96.56 52.45l29.41 50.94h58.83l29.41-50.94L184.8 1.5z"/><text transform="translate(126.83 140.62)" stroke="#fff" stroke-width="2" font-size="135" font-family="SinhalaMN,Sinhala MN" stroke-miterlimit="10">IDO<tspan x="183.05" y="0" letter-spacing="-.04em">P</tspan><tspan x="232.16" y="0">ANN</tspan></text></g></g><path stroke="#ceb500" stroke-width="2" stroke-miterlimit="10" fill="none" d="M86.97 61.95H34.15L7.73 107.7l26.42 45.74h52.82l26.41-45.74-26.41-45.75z"/></svg>