<svg id="Layer_1" xmlns="http://www.w3.org/2000/svg" xmlns:xlink="http://www.w3.org/1999/xlink" viewBox="0 0 563.3 214.9"><style>.st1{font-family:&apos;SinhalaMN&apos;}.st2{font-size:135px}.st5{stroke:#000;stroke-width:3;stroke-miterlimit:10}.st5,.st7,.st8{fill:#fff}.st8{stroke:#fff;stroke-width:2;stroke-miterlimit:10}.st9{letter-spacing:-5}</style><path fill="none" stroke="#000" stroke-width="3" stroke-miterlimit="10" d="M90 56.5H31.1l-29.4 51 29.4 50.9H90l29.4-50.9z"/><text transform="translate(25.65 140.12)" class="st1 st2">N</text><text transform="translate(25.65 140.12)" class="st1 st2" fill="none" stroke="#000" stroke-width="2" stroke-miterlimit="10">N</text><defs><path id="SVGID_1_" d="M-14.6 20.4h600v175h-600z"/></defs><use xlink:href="#SVGID_1_" overflow="visible" fill="#fff"/><clipPath id="SVGID_2_"><use xlink:href="#SVGID_1_" overflow="visible"/></clipPath><g clip-path="url(#SVGID_2_)"><path class="st5" d="M184.8 111.5H126l-29.4 50.9 29.4 51h58.8l29.4-51z"/><defs><path id="SVGID_3_" d="M-14.6 20.4h600v175h-600z"/></defs><use xlink:href="#SVGID_3_" overflow="visible" fill="#fff"/><clipPath id="SVGID_4_"><use xlink:href="#SVGID_3_" overflow="visible"/></clipPath><g clip-path="url(#SVGID_4_)"><path class="st5" d="M184.8 1.5H126l-29.4 51 29.4 50.9h58.8l29.4-50.9z"/><text transform="translate(126.83 140.62)" class="st7 st1 st2">IDO</text><text transform="translate(126.83 140.62)" class="st8 st1 st2">IDO</text><text transform="translate(309.88 140.62)" class="st7 st1 st2 st9">P</text><text transform="translate(309.88 140.62)" class="st8 st1 st2 st9">P</text><text transform="translate(358.99 140.62)" class="st7 st1 st2">ANN</text><text transform="translate(358.99 140.62)" class="st8 st1 st2">ANN</text></g><path fill="#fff" stroke="#ceb500" stroke-width="2" stroke-miterlimit="10" d="M87 62H34.2L7.7 107.7l26.5 45.7H87l26.4-45.7z"/></g></svg>